<mxfile host="app.diagrams.net" modified="2023-10-24T06:14:11.157Z" agent="Mozilla/5.0 (Windows NT 10.0; Win64; x64) AppleWebKit/537.36 (KHTML, like Gecko) Chrome/116.0.5845.888 YaBrowser/23.9.2.888 Yowser/2.5 Safari/537.36" etag="xguOgw1EveHCzocr_GgX" version="22.0.6" type="device">
  <diagram name="Страница — 1" id="ie9A4Wi1U96lq1QX-E_8">
    <mxGraphModel dx="2258" dy="821" grid="1" gridSize="10" guides="1" tooltips="1" connect="1" arrows="1" fold="1" page="1" pageScale="1" pageWidth="827" pageHeight="1169" math="0" shadow="0">
      <root>
        <mxCell id="0" />
        <mxCell id="1" parent="0" />
        <mxCell id="gvXBYGFUAvZLTtuFaXOY-1" value="&lt;p style=&quot;margin:0px;margin-top:4px;text-align:center;&quot;&gt;&lt;i&gt;&amp;lt;&amp;lt;Interface&amp;gt;&amp;gt;&lt;/i&gt;&lt;br&gt;&lt;b&gt;IInputDataStream&lt;/b&gt;&lt;/p&gt;&lt;hr size=&quot;1&quot;&gt;&lt;p style=&quot;margin:0px;margin-left:4px;&quot;&gt;+ IsEOF(): bool&lt;br&gt;+ ReadByte(): uint8_t&lt;/p&gt;&lt;p style=&quot;margin:0px;margin-left:4px;&quot;&gt;+&amp;nbsp;ReadBlock(void* dstBuffer, std::streamsize size) : std::streamsize&lt;/p&gt;" style="verticalAlign=top;align=left;overflow=fill;fontSize=12;fontFamily=Helvetica;html=1;whiteSpace=wrap;" parent="1" vertex="1">
          <mxGeometry x="-330" y="20" width="320" height="120" as="geometry" />
        </mxCell>
        <mxCell id="gvXBYGFUAvZLTtuFaXOY-2" value="CFileInputStream" style="swimlane;fontStyle=0;childLayout=stackLayout;horizontal=1;startSize=26;fillColor=none;horizontalStack=0;resizeParent=1;resizeParentMax=0;resizeLast=0;collapsible=1;marginBottom=0;whiteSpace=wrap;html=1;" parent="1" vertex="1">
          <mxGeometry x="-630" y="240" width="240" height="160" as="geometry" />
        </mxCell>
        <mxCell id="gvXBYGFUAvZLTtuFaXOY-3" value="+ IsEOF(): bool" style="text;strokeColor=none;fillColor=none;align=left;verticalAlign=top;spacingLeft=4;spacingRight=4;overflow=hidden;rotatable=0;points=[[0,0.5],[1,0.5]];portConstraint=eastwest;whiteSpace=wrap;html=1;" parent="gvXBYGFUAvZLTtuFaXOY-2" vertex="1">
          <mxGeometry y="26" width="240" height="26" as="geometry" />
        </mxCell>
        <mxCell id="gvXBYGFUAvZLTtuFaXOY-4" value="+ ReadByte(): uint8_t" style="text;strokeColor=none;fillColor=none;align=left;verticalAlign=top;spacingLeft=4;spacingRight=4;overflow=hidden;rotatable=0;points=[[0,0.5],[1,0.5]];portConstraint=eastwest;whiteSpace=wrap;html=1;" parent="gvXBYGFUAvZLTtuFaXOY-2" vertex="1">
          <mxGeometry y="52" width="240" height="26" as="geometry" />
        </mxCell>
        <mxCell id="gvXBYGFUAvZLTtuFaXOY-5" value="+&amp;nbsp;ReadBlock(void* dstBuffer, std::streamsize size) : std::streamsize" style="text;strokeColor=none;fillColor=none;align=left;verticalAlign=top;spacingLeft=4;spacingRight=4;overflow=hidden;rotatable=0;points=[[0,0.5],[1,0.5]];portConstraint=eastwest;whiteSpace=wrap;html=1;" parent="gvXBYGFUAvZLTtuFaXOY-2" vertex="1">
          <mxGeometry y="78" width="240" height="52" as="geometry" />
        </mxCell>
        <mxCell id="gvXBYGFUAvZLTtuFaXOY-12" value="- m_stream :&amp;nbsp;&amp;nbsp;std::ifstream&amp;nbsp;" style="text;strokeColor=none;fillColor=none;align=left;verticalAlign=top;spacingLeft=4;spacingRight=4;overflow=hidden;rotatable=0;points=[[0,0.5],[1,0.5]];portConstraint=eastwest;whiteSpace=wrap;html=1;" parent="gvXBYGFUAvZLTtuFaXOY-2" vertex="1">
          <mxGeometry y="130" width="240" height="30" as="geometry" />
        </mxCell>
        <mxCell id="gvXBYGFUAvZLTtuFaXOY-7" value="CMemoryInputStream" style="swimlane;fontStyle=0;childLayout=stackLayout;horizontal=1;startSize=26;fillColor=none;horizontalStack=0;resizeParent=1;resizeParentMax=0;resizeLast=0;collapsible=1;marginBottom=0;whiteSpace=wrap;html=1;" parent="1" vertex="1">
          <mxGeometry x="50" y="210" width="240" height="190" as="geometry" />
        </mxCell>
        <mxCell id="gvXBYGFUAvZLTtuFaXOY-8" value="+ IsEOF(): bool" style="text;strokeColor=none;fillColor=none;align=left;verticalAlign=top;spacingLeft=4;spacingRight=4;overflow=hidden;rotatable=0;points=[[0,0.5],[1,0.5]];portConstraint=eastwest;whiteSpace=wrap;html=1;" parent="gvXBYGFUAvZLTtuFaXOY-7" vertex="1">
          <mxGeometry y="26" width="240" height="26" as="geometry" />
        </mxCell>
        <mxCell id="gvXBYGFUAvZLTtuFaXOY-9" value="+ ReadByte(): uint8_t" style="text;strokeColor=none;fillColor=none;align=left;verticalAlign=top;spacingLeft=4;spacingRight=4;overflow=hidden;rotatable=0;points=[[0,0.5],[1,0.5]];portConstraint=eastwest;whiteSpace=wrap;html=1;" parent="gvXBYGFUAvZLTtuFaXOY-7" vertex="1">
          <mxGeometry y="52" width="240" height="26" as="geometry" />
        </mxCell>
        <mxCell id="gvXBYGFUAvZLTtuFaXOY-10" value="+&amp;nbsp;ReadBlock(void* dstBuffer, std::streamsize size) : std::streamsize" style="text;strokeColor=none;fillColor=none;align=left;verticalAlign=top;spacingLeft=4;spacingRight=4;overflow=hidden;rotatable=0;points=[[0,0.5],[1,0.5]];portConstraint=eastwest;whiteSpace=wrap;html=1;" parent="gvXBYGFUAvZLTtuFaXOY-7" vertex="1">
          <mxGeometry y="78" width="240" height="52" as="geometry" />
        </mxCell>
        <mxCell id="gvXBYGFUAvZLTtuFaXOY-13" value="- m_stream : std::vector&amp;lt;uint8_t&amp;gt;" style="text;strokeColor=none;fillColor=none;align=left;verticalAlign=top;spacingLeft=4;spacingRight=4;overflow=hidden;rotatable=0;points=[[0,0.5],[1,0.5]];portConstraint=eastwest;whiteSpace=wrap;html=1;" parent="gvXBYGFUAvZLTtuFaXOY-7" vertex="1">
          <mxGeometry y="130" width="240" height="30" as="geometry" />
        </mxCell>
        <mxCell id="gvXBYGFUAvZLTtuFaXOY-14" value="- m_readPos : size_t" style="text;strokeColor=none;fillColor=none;align=left;verticalAlign=top;spacingLeft=4;spacingRight=4;overflow=hidden;rotatable=0;points=[[0,0.5],[1,0.5]];portConstraint=eastwest;whiteSpace=wrap;html=1;" parent="gvXBYGFUAvZLTtuFaXOY-7" vertex="1">
          <mxGeometry y="160" width="240" height="30" as="geometry" />
        </mxCell>
        <mxCell id="gvXBYGFUAvZLTtuFaXOY-23" value="CDecryptStream" style="swimlane;fontStyle=0;childLayout=stackLayout;horizontal=1;startSize=26;fillColor=none;horizontalStack=0;resizeParent=1;resizeParentMax=0;resizeLast=0;collapsible=1;marginBottom=0;whiteSpace=wrap;html=1;" parent="1" vertex="1">
          <mxGeometry x="-470" y="530" width="240" height="134" as="geometry" />
        </mxCell>
        <mxCell id="gvXBYGFUAvZLTtuFaXOY-25" value="+ ReadByte(): uint8_t" style="text;strokeColor=none;fillColor=none;align=left;verticalAlign=top;spacingLeft=4;spacingRight=4;overflow=hidden;rotatable=0;points=[[0,0.5],[1,0.5]];portConstraint=eastwest;whiteSpace=wrap;html=1;" parent="gvXBYGFUAvZLTtuFaXOY-23" vertex="1">
          <mxGeometry y="26" width="240" height="26" as="geometry" />
        </mxCell>
        <mxCell id="gvXBYGFUAvZLTtuFaXOY-26" value="+&amp;nbsp;ReadBlock(void* dstBuffer, std::streamsize size) : std::streamsize" style="text;strokeColor=none;fillColor=none;align=left;verticalAlign=top;spacingLeft=4;spacingRight=4;overflow=hidden;rotatable=0;points=[[0,0.5],[1,0.5]];portConstraint=eastwest;whiteSpace=wrap;html=1;" parent="gvXBYGFUAvZLTtuFaXOY-23" vertex="1">
          <mxGeometry y="52" width="240" height="52" as="geometry" />
        </mxCell>
        <mxCell id="gvXBYGFUAvZLTtuFaXOY-27" value="- m_table: std::vector&amp;lt;uint8_t&amp;gt;" style="text;strokeColor=none;fillColor=none;align=left;verticalAlign=top;spacingLeft=4;spacingRight=4;overflow=hidden;rotatable=0;points=[[0,0.5],[1,0.5]];portConstraint=eastwest;whiteSpace=wrap;html=1;" parent="gvXBYGFUAvZLTtuFaXOY-23" vertex="1">
          <mxGeometry y="104" width="240" height="30" as="geometry" />
        </mxCell>
        <mxCell id="gvXBYGFUAvZLTtuFaXOY-30" value="CDecompressStream" style="swimlane;fontStyle=0;childLayout=stackLayout;horizontal=1;startSize=26;fillColor=none;horizontalStack=0;resizeParent=1;resizeParentMax=0;resizeLast=0;collapsible=1;marginBottom=0;whiteSpace=wrap;html=1;" parent="1" vertex="1">
          <mxGeometry x="-120" y="530" width="240" height="170" as="geometry" />
        </mxCell>
        <mxCell id="gvXBYGFUAvZLTtuFaXOY-31" value="+ ReadByte(): uint8_t" style="text;strokeColor=none;fillColor=none;align=left;verticalAlign=top;spacingLeft=4;spacingRight=4;overflow=hidden;rotatable=0;points=[[0,0.5],[1,0.5]];portConstraint=eastwest;whiteSpace=wrap;html=1;" parent="gvXBYGFUAvZLTtuFaXOY-30" vertex="1">
          <mxGeometry y="26" width="240" height="26" as="geometry" />
        </mxCell>
        <mxCell id="gvXBYGFUAvZLTtuFaXOY-32" value="+&amp;nbsp;ReadBlock(void* dstBuffer, std::streamsize size) : std::streamsize" style="text;strokeColor=none;fillColor=none;align=left;verticalAlign=top;spacingLeft=4;spacingRight=4;overflow=hidden;rotatable=0;points=[[0,0.5],[1,0.5]];portConstraint=eastwest;whiteSpace=wrap;html=1;" parent="gvXBYGFUAvZLTtuFaXOY-30" vertex="1">
          <mxGeometry y="52" width="240" height="52" as="geometry" />
        </mxCell>
        <mxCell id="gvXBYGFUAvZLTtuFaXOY-35" value="+&amp;nbsp;ReadPair()" style="text;strokeColor=none;fillColor=none;align=left;verticalAlign=top;spacingLeft=4;spacingRight=4;overflow=hidden;rotatable=0;points=[[0,0.5],[1,0.5]];portConstraint=eastwest;whiteSpace=wrap;html=1;" parent="gvXBYGFUAvZLTtuFaXOY-30" vertex="1">
          <mxGeometry y="104" width="240" height="36" as="geometry" />
        </mxCell>
        <mxCell id="gvXBYGFUAvZLTtuFaXOY-33" value="-&amp;nbsp; m_pair : std::pair&amp;lt;uint8_t, uint8_t&amp;gt;" style="text;strokeColor=none;fillColor=none;align=left;verticalAlign=top;spacingLeft=4;spacingRight=4;overflow=hidden;rotatable=0;points=[[0,0.5],[1,0.5]];portConstraint=eastwest;whiteSpace=wrap;html=1;" parent="gvXBYGFUAvZLTtuFaXOY-30" vertex="1">
          <mxGeometry y="140" width="240" height="30" as="geometry" />
        </mxCell>
        <mxCell id="gvXBYGFUAvZLTtuFaXOY-15" value="CInputStreamDecorator" style="swimlane;fontStyle=0;childLayout=stackLayout;horizontal=1;startSize=26;fillColor=none;horizontalStack=0;resizeParent=1;resizeParentMax=0;resizeLast=0;collapsible=1;marginBottom=0;whiteSpace=wrap;html=1;" parent="1" vertex="1">
          <mxGeometry x="-290" y="330" width="280" height="90" as="geometry" />
        </mxCell>
        <mxCell id="gvXBYGFUAvZLTtuFaXOY-16" value="+ IsEOF(): bool" style="text;strokeColor=none;fillColor=none;align=left;verticalAlign=top;spacingLeft=4;spacingRight=4;overflow=hidden;rotatable=0;points=[[0,0.5],[1,0.5]];portConstraint=eastwest;whiteSpace=wrap;html=1;" parent="gvXBYGFUAvZLTtuFaXOY-15" vertex="1">
          <mxGeometry y="26" width="280" height="26" as="geometry" />
        </mxCell>
        <mxCell id="gvXBYGFUAvZLTtuFaXOY-20" value="- m_stream :&amp;nbsp;&amp;nbsp;std::unique_ptr&amp;lt;IInputDataStream&amp;gt;" style="text;strokeColor=none;fillColor=none;align=left;verticalAlign=top;spacingLeft=4;spacingRight=4;overflow=hidden;rotatable=0;points=[[0,0.5],[1,0.5]];portConstraint=eastwest;whiteSpace=wrap;html=1;" parent="gvXBYGFUAvZLTtuFaXOY-15" vertex="1">
          <mxGeometry y="52" width="280" height="38" as="geometry" />
        </mxCell>
        <mxCell id="gvXBYGFUAvZLTtuFaXOY-54" value="COutputStreamDecorator" style="swimlane;fontStyle=0;childLayout=stackLayout;horizontal=1;startSize=26;fillColor=none;horizontalStack=0;resizeParent=1;resizeParentMax=0;resizeLast=0;collapsible=1;marginBottom=0;whiteSpace=wrap;html=1;" parent="1" vertex="1">
          <mxGeometry x="-310" y="990" width="300" height="60" as="geometry" />
        </mxCell>
        <mxCell id="gvXBYGFUAvZLTtuFaXOY-56" value="- m_stream :&amp;nbsp;&amp;nbsp;std::unique_ptr&amp;lt;IOutputDataStream&amp;gt;" style="text;strokeColor=none;fillColor=none;align=left;verticalAlign=top;spacingLeft=4;spacingRight=4;overflow=hidden;rotatable=0;points=[[0,0.5],[1,0.5]];portConstraint=eastwest;whiteSpace=wrap;html=1;" parent="gvXBYGFUAvZLTtuFaXOY-54" vertex="1">
          <mxGeometry y="26" width="300" height="34" as="geometry" />
        </mxCell>
        <mxCell id="gvXBYGFUAvZLTtuFaXOY-6" value="" style="endArrow=block;dashed=1;endFill=0;endSize=12;html=1;rounded=0;entryX=0.5;entryY=1;entryDx=0;entryDy=0;exitX=0.5;exitY=0;exitDx=0;exitDy=0;" parent="1" source="gvXBYGFUAvZLTtuFaXOY-2" target="gvXBYGFUAvZLTtuFaXOY-1" edge="1">
          <mxGeometry width="160" relative="1" as="geometry">
            <mxPoint x="330" y="300" as="sourcePoint" />
            <mxPoint x="490" y="300" as="targetPoint" />
          </mxGeometry>
        </mxCell>
        <mxCell id="gvXBYGFUAvZLTtuFaXOY-11" value="" style="endArrow=block;dashed=1;endFill=0;endSize=12;html=1;rounded=0;entryX=0.602;entryY=1.02;entryDx=0;entryDy=0;entryPerimeter=0;exitX=0.5;exitY=0;exitDx=0;exitDy=0;" parent="1" source="gvXBYGFUAvZLTtuFaXOY-7" target="gvXBYGFUAvZLTtuFaXOY-1" edge="1">
          <mxGeometry width="160" relative="1" as="geometry">
            <mxPoint x="330" y="300" as="sourcePoint" />
            <mxPoint x="490" y="300" as="targetPoint" />
          </mxGeometry>
        </mxCell>
        <mxCell id="gvXBYGFUAvZLTtuFaXOY-22" value="" style="endArrow=block;dashed=1;endFill=0;endSize=12;html=1;rounded=0;exitX=0.5;exitY=0;exitDx=0;exitDy=0;" parent="1" source="gvXBYGFUAvZLTtuFaXOY-15" target="gvXBYGFUAvZLTtuFaXOY-1" edge="1">
          <mxGeometry width="160" relative="1" as="geometry">
            <mxPoint x="-200" y="380" as="sourcePoint" />
            <mxPoint x="-40" y="380" as="targetPoint" />
          </mxGeometry>
        </mxCell>
        <mxCell id="gvXBYGFUAvZLTtuFaXOY-29" value="Extends" style="endArrow=block;endSize=16;endFill=0;html=1;rounded=0;exitX=0.5;exitY=0;exitDx=0;exitDy=0;" parent="1" source="gvXBYGFUAvZLTtuFaXOY-23" target="gvXBYGFUAvZLTtuFaXOY-20" edge="1">
          <mxGeometry width="160" relative="1" as="geometry">
            <mxPoint x="-200" y="490" as="sourcePoint" />
            <mxPoint x="-40" y="490" as="targetPoint" />
          </mxGeometry>
        </mxCell>
        <mxCell id="gvXBYGFUAvZLTtuFaXOY-34" value="Extends" style="endArrow=block;endSize=16;endFill=0;html=1;rounded=0;entryX=0.646;entryY=0.968;entryDx=0;entryDy=0;entryPerimeter=0;exitX=0.5;exitY=0;exitDx=0;exitDy=0;" parent="1" source="gvXBYGFUAvZLTtuFaXOY-30" target="gvXBYGFUAvZLTtuFaXOY-20" edge="1">
          <mxGeometry width="160" relative="1" as="geometry">
            <mxPoint x="-200" y="490" as="sourcePoint" />
            <mxPoint x="-40" y="490" as="targetPoint" />
          </mxGeometry>
        </mxCell>
        <mxCell id="gvXBYGFUAvZLTtuFaXOY-36" value="&lt;p style=&quot;margin:0px;margin-top:4px;text-align:center;&quot;&gt;&lt;i&gt;&amp;lt;&amp;lt;Interface&amp;gt;&amp;gt;&lt;/i&gt;&lt;br&gt;&lt;b&gt;IOutputDataStream&lt;/b&gt;&lt;br&gt;&lt;/p&gt;&lt;hr size=&quot;1&quot;&gt;&lt;p style=&quot;margin:0px;margin-left:4px;&quot;&gt;+ WriteByte(uint8_t data)&lt;br&gt;+ WriteBlock(const void* srcData, std::streamsize size)&lt;/p&gt;&lt;p style=&quot;margin:0px;margin-left:4px;&quot;&gt;+&amp;nbsp;Close()&lt;/p&gt;" style="verticalAlign=top;align=left;overflow=fill;fontSize=12;fontFamily=Helvetica;html=1;whiteSpace=wrap;" parent="1" vertex="1">
          <mxGeometry x="-350" y="760" width="300" height="100" as="geometry" />
        </mxCell>
        <mxCell id="gvXBYGFUAvZLTtuFaXOY-41" value="CFileOutputStream" style="swimlane;fontStyle=0;childLayout=stackLayout;horizontal=1;startSize=26;fillColor=none;horizontalStack=0;resizeParent=1;resizeParentMax=0;resizeLast=0;collapsible=1;marginBottom=0;whiteSpace=wrap;html=1;" parent="1" vertex="1">
          <mxGeometry x="-710" y="1080" width="320" height="154" as="geometry" />
        </mxCell>
        <mxCell id="gvXBYGFUAvZLTtuFaXOY-42" value="+ WriteByte(uint8_t data)" style="text;strokeColor=none;fillColor=none;align=left;verticalAlign=top;spacingLeft=4;spacingRight=4;overflow=hidden;rotatable=0;points=[[0,0.5],[1,0.5]];portConstraint=eastwest;whiteSpace=wrap;html=1;" parent="gvXBYGFUAvZLTtuFaXOY-41" vertex="1">
          <mxGeometry y="26" width="320" height="26" as="geometry" />
        </mxCell>
        <mxCell id="gvXBYGFUAvZLTtuFaXOY-43" value="+ WriteBlock(const void* srcData, std::streamsize size)" style="text;strokeColor=none;fillColor=none;align=left;verticalAlign=top;spacingLeft=4;spacingRight=4;overflow=hidden;rotatable=0;points=[[0,0.5],[1,0.5]];portConstraint=eastwest;whiteSpace=wrap;html=1;" parent="gvXBYGFUAvZLTtuFaXOY-41" vertex="1">
          <mxGeometry y="52" width="320" height="38" as="geometry" />
        </mxCell>
        <mxCell id="gvXBYGFUAvZLTtuFaXOY-44" value="+&amp;nbsp;Close()" style="text;strokeColor=none;fillColor=none;align=left;verticalAlign=top;spacingLeft=4;spacingRight=4;overflow=hidden;rotatable=0;points=[[0,0.5],[1,0.5]];portConstraint=eastwest;whiteSpace=wrap;html=1;" parent="gvXBYGFUAvZLTtuFaXOY-41" vertex="1">
          <mxGeometry y="90" width="320" height="32" as="geometry" />
        </mxCell>
        <mxCell id="gvXBYGFUAvZLTtuFaXOY-46" value="- m_stream : std::ofstream&amp;nbsp;" style="text;strokeColor=none;fillColor=none;align=left;verticalAlign=top;spacingLeft=4;spacingRight=4;overflow=hidden;rotatable=0;points=[[0,0.5],[1,0.5]];portConstraint=eastwest;whiteSpace=wrap;html=1;" parent="gvXBYGFUAvZLTtuFaXOY-41" vertex="1">
          <mxGeometry y="122" width="320" height="32" as="geometry" />
        </mxCell>
        <mxCell id="gvXBYGFUAvZLTtuFaXOY-58" value="CEncryptStream" style="swimlane;fontStyle=0;childLayout=stackLayout;horizontal=1;startSize=26;fillColor=none;horizontalStack=0;resizeParent=1;resizeParentMax=0;resizeLast=0;collapsible=1;marginBottom=0;whiteSpace=wrap;html=1;" parent="1" vertex="1">
          <mxGeometry x="-550" y="1290" width="320" height="154" as="geometry" />
        </mxCell>
        <mxCell id="gvXBYGFUAvZLTtuFaXOY-59" value="+ WriteByte(uint8_t data)" style="text;strokeColor=none;fillColor=none;align=left;verticalAlign=top;spacingLeft=4;spacingRight=4;overflow=hidden;rotatable=0;points=[[0,0.5],[1,0.5]];portConstraint=eastwest;whiteSpace=wrap;html=1;" parent="gvXBYGFUAvZLTtuFaXOY-58" vertex="1">
          <mxGeometry y="26" width="320" height="26" as="geometry" />
        </mxCell>
        <mxCell id="gvXBYGFUAvZLTtuFaXOY-60" value="+ WriteBlock(const void* srcData, std::streamsize size)" style="text;strokeColor=none;fillColor=none;align=left;verticalAlign=top;spacingLeft=4;spacingRight=4;overflow=hidden;rotatable=0;points=[[0,0.5],[1,0.5]];portConstraint=eastwest;whiteSpace=wrap;html=1;" parent="gvXBYGFUAvZLTtuFaXOY-58" vertex="1">
          <mxGeometry y="52" width="320" height="38" as="geometry" />
        </mxCell>
        <mxCell id="gvXBYGFUAvZLTtuFaXOY-61" value="+&amp;nbsp;Close()" style="text;strokeColor=none;fillColor=none;align=left;verticalAlign=top;spacingLeft=4;spacingRight=4;overflow=hidden;rotatable=0;points=[[0,0.5],[1,0.5]];portConstraint=eastwest;whiteSpace=wrap;html=1;" parent="gvXBYGFUAvZLTtuFaXOY-58" vertex="1">
          <mxGeometry y="90" width="320" height="32" as="geometry" />
        </mxCell>
        <mxCell id="gvXBYGFUAvZLTtuFaXOY-62" value="- m_table: std::vector&amp;lt;uint8_t&amp;gt;" style="text;strokeColor=none;fillColor=none;align=left;verticalAlign=top;spacingLeft=4;spacingRight=4;overflow=hidden;rotatable=0;points=[[0,0.5],[1,0.5]];portConstraint=eastwest;whiteSpace=wrap;html=1;" parent="gvXBYGFUAvZLTtuFaXOY-58" vertex="1">
          <mxGeometry y="122" width="320" height="32" as="geometry" />
        </mxCell>
        <mxCell id="gvXBYGFUAvZLTtuFaXOY-64" value="CCompressStream" style="swimlane;fontStyle=0;childLayout=stackLayout;horizontal=1;startSize=26;fillColor=none;horizontalStack=0;resizeParent=1;resizeParentMax=0;resizeLast=0;collapsible=1;marginBottom=0;whiteSpace=wrap;html=1;" parent="1" vertex="1">
          <mxGeometry x="-140" y="1320" width="320" height="250" as="geometry" />
        </mxCell>
        <mxCell id="gvXBYGFUAvZLTtuFaXOY-65" value="+ WriteByte(uint8_t data)" style="text;strokeColor=none;fillColor=none;align=left;verticalAlign=top;spacingLeft=4;spacingRight=4;overflow=hidden;rotatable=0;points=[[0,0.5],[1,0.5]];portConstraint=eastwest;whiteSpace=wrap;html=1;" parent="gvXBYGFUAvZLTtuFaXOY-64" vertex="1">
          <mxGeometry y="26" width="320" height="26" as="geometry" />
        </mxCell>
        <mxCell id="gvXBYGFUAvZLTtuFaXOY-66" value="+ WriteBlock(const void* srcData, std::streamsize size)" style="text;strokeColor=none;fillColor=none;align=left;verticalAlign=top;spacingLeft=4;spacingRight=4;overflow=hidden;rotatable=0;points=[[0,0.5],[1,0.5]];portConstraint=eastwest;whiteSpace=wrap;html=1;" parent="gvXBYGFUAvZLTtuFaXOY-64" vertex="1">
          <mxGeometry y="52" width="320" height="38" as="geometry" />
        </mxCell>
        <mxCell id="gvXBYGFUAvZLTtuFaXOY-67" value="+&amp;nbsp;Close()" style="text;strokeColor=none;fillColor=none;align=left;verticalAlign=top;spacingLeft=4;spacingRight=4;overflow=hidden;rotatable=0;points=[[0,0.5],[1,0.5]];portConstraint=eastwest;whiteSpace=wrap;html=1;" parent="gvXBYGFUAvZLTtuFaXOY-64" vertex="1">
          <mxGeometry y="90" width="320" height="32" as="geometry" />
        </mxCell>
        <mxCell id="gvXBYGFUAvZLTtuFaXOY-71" value="+&amp;nbsp;UpdatePair(uint8_t data)" style="text;strokeColor=none;fillColor=none;align=left;verticalAlign=top;spacingLeft=4;spacingRight=4;overflow=hidden;rotatable=0;points=[[0,0.5],[1,0.5]];portConstraint=eastwest;whiteSpace=wrap;html=1;" parent="gvXBYGFUAvZLTtuFaXOY-64" vertex="1">
          <mxGeometry y="122" width="320" height="32" as="geometry" />
        </mxCell>
        <mxCell id="gvXBYGFUAvZLTtuFaXOY-72" value="+&amp;nbsp;WritePair()" style="text;strokeColor=none;fillColor=none;align=left;verticalAlign=top;spacingLeft=4;spacingRight=4;overflow=hidden;rotatable=0;points=[[0,0.5],[1,0.5]];portConstraint=eastwest;whiteSpace=wrap;html=1;" parent="gvXBYGFUAvZLTtuFaXOY-64" vertex="1">
          <mxGeometry y="154" width="320" height="32" as="geometry" />
        </mxCell>
        <mxCell id="gvXBYGFUAvZLTtuFaXOY-68" value="-&amp;nbsp; m_pair : std::pair&amp;lt;uint8_t, uint8_t&amp;gt;" style="text;strokeColor=none;fillColor=none;align=left;verticalAlign=top;spacingLeft=4;spacingRight=4;overflow=hidden;rotatable=0;points=[[0,0.5],[1,0.5]];portConstraint=eastwest;whiteSpace=wrap;html=1;" parent="gvXBYGFUAvZLTtuFaXOY-64" vertex="1">
          <mxGeometry y="186" width="320" height="32" as="geometry" />
        </mxCell>
        <mxCell id="gvXBYGFUAvZLTtuFaXOY-70" value="-&amp;nbsp; m_max : const uint8_t" style="text;strokeColor=none;fillColor=none;align=left;verticalAlign=top;spacingLeft=4;spacingRight=4;overflow=hidden;rotatable=0;points=[[0,0.5],[1,0.5]];portConstraint=eastwest;whiteSpace=wrap;html=1;" parent="gvXBYGFUAvZLTtuFaXOY-64" vertex="1">
          <mxGeometry y="218" width="320" height="32" as="geometry" />
        </mxCell>
        <mxCell id="gvXBYGFUAvZLTtuFaXOY-47" value="CMemoryOutputStream" style="swimlane;fontStyle=0;childLayout=stackLayout;horizontal=1;startSize=26;fillColor=none;horizontalStack=0;resizeParent=1;resizeParentMax=0;resizeLast=0;collapsible=1;marginBottom=0;whiteSpace=wrap;html=1;" parent="1" vertex="1">
          <mxGeometry x="40" y="1050" width="320" height="186" as="geometry" />
        </mxCell>
        <mxCell id="gvXBYGFUAvZLTtuFaXOY-48" value="+ WriteByte(uint8_t data)" style="text;strokeColor=none;fillColor=none;align=left;verticalAlign=top;spacingLeft=4;spacingRight=4;overflow=hidden;rotatable=0;points=[[0,0.5],[1,0.5]];portConstraint=eastwest;whiteSpace=wrap;html=1;" parent="gvXBYGFUAvZLTtuFaXOY-47" vertex="1">
          <mxGeometry y="26" width="320" height="26" as="geometry" />
        </mxCell>
        <mxCell id="gvXBYGFUAvZLTtuFaXOY-49" value="+ WriteBlock(const void* srcData, std::streamsize size)" style="text;strokeColor=none;fillColor=none;align=left;verticalAlign=top;spacingLeft=4;spacingRight=4;overflow=hidden;rotatable=0;points=[[0,0.5],[1,0.5]];portConstraint=eastwest;whiteSpace=wrap;html=1;" parent="gvXBYGFUAvZLTtuFaXOY-47" vertex="1">
          <mxGeometry y="52" width="320" height="38" as="geometry" />
        </mxCell>
        <mxCell id="gvXBYGFUAvZLTtuFaXOY-50" value="+&amp;nbsp;Close()" style="text;strokeColor=none;fillColor=none;align=left;verticalAlign=top;spacingLeft=4;spacingRight=4;overflow=hidden;rotatable=0;points=[[0,0.5],[1,0.5]];portConstraint=eastwest;whiteSpace=wrap;html=1;" parent="gvXBYGFUAvZLTtuFaXOY-47" vertex="1">
          <mxGeometry y="90" width="320" height="32" as="geometry" />
        </mxCell>
        <mxCell id="gvXBYGFUAvZLTtuFaXOY-51" value="- m_stream: std::vector&amp;lt;uint8_t&amp;gt;&amp;amp;" style="text;strokeColor=none;fillColor=none;align=left;verticalAlign=top;spacingLeft=4;spacingRight=4;overflow=hidden;rotatable=0;points=[[0,0.5],[1,0.5]];portConstraint=eastwest;whiteSpace=wrap;html=1;" parent="gvXBYGFUAvZLTtuFaXOY-47" vertex="1">
          <mxGeometry y="122" width="320" height="32" as="geometry" />
        </mxCell>
        <mxCell id="gvXBYGFUAvZLTtuFaXOY-53" value="-&amp;nbsp; m_isOpen : bool" style="text;strokeColor=none;fillColor=none;align=left;verticalAlign=top;spacingLeft=4;spacingRight=4;overflow=hidden;rotatable=0;points=[[0,0.5],[1,0.5]];portConstraint=eastwest;whiteSpace=wrap;html=1;" parent="gvXBYGFUAvZLTtuFaXOY-47" vertex="1">
          <mxGeometry y="154" width="320" height="32" as="geometry" />
        </mxCell>
        <mxCell id="gvXBYGFUAvZLTtuFaXOY-45" value="" style="endArrow=block;dashed=1;endFill=0;endSize=12;html=1;rounded=0;exitX=0.5;exitY=0;exitDx=0;exitDy=0;entryX=0.449;entryY=1.012;entryDx=0;entryDy=0;entryPerimeter=0;" parent="1" source="gvXBYGFUAvZLTtuFaXOY-41" target="gvXBYGFUAvZLTtuFaXOY-36" edge="1">
          <mxGeometry width="160" relative="1" as="geometry">
            <mxPoint x="-230" y="790" as="sourcePoint" />
            <mxPoint x="-70" y="790" as="targetPoint" />
          </mxGeometry>
        </mxCell>
        <mxCell id="gvXBYGFUAvZLTtuFaXOY-52" value="" style="endArrow=block;dashed=1;endFill=0;endSize=12;html=1;rounded=0;exitX=0.567;exitY=0.005;exitDx=0;exitDy=0;entryX=0.715;entryY=1.036;entryDx=0;entryDy=0;entryPerimeter=0;exitPerimeter=0;" parent="1" source="gvXBYGFUAvZLTtuFaXOY-47" target="gvXBYGFUAvZLTtuFaXOY-36" edge="1">
          <mxGeometry width="160" relative="1" as="geometry">
            <mxPoint x="-460" y="950" as="sourcePoint" />
            <mxPoint x="-205" y="871" as="targetPoint" />
          </mxGeometry>
        </mxCell>
        <mxCell id="gvXBYGFUAvZLTtuFaXOY-57" value="" style="endArrow=block;dashed=1;endFill=0;endSize=12;html=1;rounded=0;exitX=0.5;exitY=0;exitDx=0;exitDy=0;entryX=0.547;entryY=1.004;entryDx=0;entryDy=0;entryPerimeter=0;" parent="1" source="gvXBYGFUAvZLTtuFaXOY-54" target="gvXBYGFUAvZLTtuFaXOY-36" edge="1">
          <mxGeometry width="160" relative="1" as="geometry">
            <mxPoint x="176" y="1067" as="sourcePoint" />
            <mxPoint x="-180" y="880" as="targetPoint" />
          </mxGeometry>
        </mxCell>
        <mxCell id="gvXBYGFUAvZLTtuFaXOY-63" value="Extends" style="endArrow=block;endSize=16;endFill=0;html=1;rounded=0;exitX=0.5;exitY=0;exitDx=0;exitDy=0;entryX=0.361;entryY=1.118;entryDx=0;entryDy=0;entryPerimeter=0;" parent="1" source="gvXBYGFUAvZLTtuFaXOY-58" target="gvXBYGFUAvZLTtuFaXOY-56" edge="1">
          <mxGeometry width="160" relative="1" as="geometry">
            <mxPoint x="-260" y="1190" as="sourcePoint" />
            <mxPoint x="-100" y="1190" as="targetPoint" />
          </mxGeometry>
        </mxCell>
        <mxCell id="gvXBYGFUAvZLTtuFaXOY-69" value="Extends" style="endArrow=block;endSize=16;endFill=0;html=1;rounded=0;exitX=0.5;exitY=0;exitDx=0;exitDy=0;entryX=0.533;entryY=1;entryDx=0;entryDy=0;entryPerimeter=0;" parent="1" source="gvXBYGFUAvZLTtuFaXOY-64" target="gvXBYGFUAvZLTtuFaXOY-56" edge="1">
          <mxGeometry width="160" relative="1" as="geometry">
            <mxPoint x="-380" y="1300" as="sourcePoint" />
            <mxPoint x="-192" y="1064" as="targetPoint" />
          </mxGeometry>
        </mxCell>
        <mxCell id="7ZLMYxv0pXVOcRDowcWC-1" value="" style="endArrow=diamondThin;endFill=1;endSize=24;html=1;rounded=0;entryX=0;entryY=0.5;entryDx=0;entryDy=0;exitX=0.346;exitY=1.023;exitDx=0;exitDy=0;exitPerimeter=0;" parent="1" source="gvXBYGFUAvZLTtuFaXOY-1" target="gvXBYGFUAvZLTtuFaXOY-20" edge="1">
          <mxGeometry width="160" relative="1" as="geometry">
            <mxPoint x="-290" y="330" as="sourcePoint" />
            <mxPoint x="-130" y="330" as="targetPoint" />
            <Array as="points">
              <mxPoint x="-330" y="260" />
            </Array>
          </mxGeometry>
        </mxCell>
        <mxCell id="7ZLMYxv0pXVOcRDowcWC-2" value="" style="endArrow=diamondThin;endFill=1;endSize=24;html=1;rounded=0;exitX=0.355;exitY=0.988;exitDx=0;exitDy=0;exitPerimeter=0;entryX=1;entryY=0.5;entryDx=0;entryDy=0;" parent="1" source="gvXBYGFUAvZLTtuFaXOY-36" target="gvXBYGFUAvZLTtuFaXOY-56" edge="1">
          <mxGeometry width="160" relative="1" as="geometry">
            <mxPoint x="-290" y="1030" as="sourcePoint" />
            <mxPoint x="-130" y="1030" as="targetPoint" />
            <Array as="points">
              <mxPoint x="20" y="970" />
            </Array>
          </mxGeometry>
        </mxCell>
      </root>
    </mxGraphModel>
  </diagram>
</mxfile>
